<?xml version="1.0" encoding="utf-8"?>
<!-- Generator: Adobe Illustrator 25.2.3, SVG Export Plug-In . SVG Version: 6.00 Build 0)  -->
<svg version="1.1" id="Layer_1" xmlns="http://www.w3.org/2000/svg" xmlns:xlink="http://www.w3.org/1999/xlink" x="0px" y="0px"
	 viewBox="0 0 900 250" style="enable-background:new 0 0 900 250;" xml:space="preserve">
<style type="text/css">
	.st0{fill:#ED3248;}
	.st1{fill:#FFFFFF;}
</style>
<g>
	<path d="M17.7,92.9c0-10.5,6.9-16.3,15.8-16.3s15.8,5.7,15.8,16.3v13.4h0.5c4.1-14.6,12-29.6,28.9-29.6c11,0,19.1,7.2,19.1,17
		c0,12.9-8.6,17.5-17.2,17.5h-6.2c-14.1,0-21.8,9.8-21.8,38.7v40.6c0,9.3-3.8,17.5-17.5,17.5s-17.5-8.1-17.5-17.5V92.9z"/>
	<path d="M139.9,148.8c0,18.4,12,31.8,32.3,31.8c26.3,0,26.3-17.2,40.4-17.2c8.4,0,14.3,7.2,14.3,13.6c0,21-33.7,30.8-54.7,30.8
		c-48.8,0-67.2-33-67.2-63.4c0-40.6,24.6-67.9,66-67.9c40.2,0,63.1,28.4,63.1,57.1c0,12-3.6,15.1-15.3,15.1H139.9z M201.1,128.7
		c-1.9-16-13.9-27.7-29.4-27.7c-17.5,0-28,10.8-31.8,27.7H201.1z"/>
	<path d="M372.5,171.1c0,14.6,3.6,17.9,3.6,23.4c0,7.9-7.4,13.4-15.8,13.4c-15.1,0-20.1-9.6-20.6-20.3
		c-13.6,15.1-29.4,20.3-47.8,20.3c-19.8,0-39.4-13.6-39.4-35.6c0-28.9,22-37.1,48.8-40.2l21.3-2.4c8.4-1,15.1-2.9,15.1-12.9
		c0-10-10.3-14.3-22-14.3c-25.8,0-26.5,19.1-40.4,19.1c-8.8,0-14.8-6.2-14.8-13.4c0-13.9,19.6-31.6,55.5-31.6
		c33.5,0,56.7,10.8,56.7,35.9V171.1z M337.6,146c-3.8,3.6-11,4.8-15.1,5.5l-12.7,1.9c-14.6,2.2-22.5,6.7-22.5,17.2
		c0,7.9,7.4,14.3,19.4,14.3c19.1,0,30.8-12.4,30.8-25.3V146z"/>
	<path d="M461.5,76.6c29.2,0,50.9,16.5,50.9,32.8c0,10-7.4,15.1-16.3,15.1c-16.5,0-10.5-20.6-35.6-20.6c-13.6,0-29.6,9.3-29.6,40.9
		c0,21.8,10.3,35.9,29.4,35.9c24.4,0,19.1-22.5,37.5-22.5c8.8,0,14.6,6.5,14.6,13.4c0,15.3-17.2,36.3-53.1,36.3
		c-43,0-63.4-26.5-63.4-63.1C396,104.6,418.7,76.6,461.5,76.6z"/>
	<path d="M531,47c0-11.5,6.9-17.5,17.5-17.5c10.5,0,17.5,6,17.5,17.5V95h0.5c6.9-9.1,19.1-18.4,39-18.4c21,0,44,10.5,44,45.9v67.9
		c0,9.3-3.8,17.5-17.5,17.5s-17.5-8.1-17.5-17.5v-61c0-14.1-6.9-24.1-22-24.1c-12.2,0-26.5,10-26.5,27.5v57.6
		c0,9.3-3.8,17.5-17.5,17.5c-13.6,0-17.5-8.1-17.5-17.5V47z"/>
</g>
<g>
	<g>
		<g>
			<g>
				<circle class="st0" cx="781.4" cy="127" r="104.8"/>
			</g>
		</g>
	</g>
	<g>
		<path class="st1" d="M781.7,70.1l-32.5,32.5l81.2,81.2l19.1-19.1c7.4-7.4,7.4-19.3,0-26.6L781.7,70.1z"/>
		<path class="st1" d="M778.4,138l-32.5-32.5L717.3,134c-9.6,9.6-9.6,25.1,0,34.7l15.2,15.2L778.4,138z"/>
	</g>
</g>
</svg>
